<?xml version="1.0" encoding="utf-8"?>
<!-- Generator: Adobe Illustrator 16.0.0, SVG Export Plug-In . SVG Version: 6.00 Build 0)  -->
<!DOCTYPE svg PUBLIC "-//W3C//DTD SVG 1.1//EN" "http://www.w3.org/Graphics/SVG/1.1/DTD/svg11.dtd">
<svg xmlns="http://www.w3.org/2000/svg" xmlns:xlink="http://www.w3.org/1999/xlink" version="1.1" id="Layer_1" x="0px" y="0px" width="64px" height="64px" viewBox="0 0 512 512" enable-background="new 0 0 512 512" xml:space="preserve">
<g>
	<g>
		<g>
			<g>
				<g>
					<g>
						<g>
							<g>
								<path fill="#32BEA6" d="M7.9,256C7.9,119,119,7.9,256,7.9C393,7.9,504.1,119,504.1,256c0,137-111.1,248.1-248.1,248.1          C119,504.1,7.9,393,7.9,256z"/>
							</g>
						</g>
					</g>
				</g>
			</g>
		</g>
	</g>
	<path fill="#FFFFFF" d="M391.5,214.5H297v-93.9c0-4-3.2-7.2-7.2-7.2h-68.1c-4,0-7.2,3.2-7.2,7.2v93.9h-93.9c-4,0-7.2,3.2-7.2,7.2   v69.2c0,4,3.2,7.2,7.2,7.2h93.9v93.4c0,4,3.2,7.2,7.2,7.2h68.1c4,0,7.2-3.2,7.2-7.2v-93.4h94.5c4,0,7.2-3.2,7.2-7.2v-69.2   C398.7,217.7,395.4,214.5,391.5,214.5z"/>
</g>
</svg>
