<?xml version="1.0" encoding="iso-8859-1"?>
<!-- Generator: Adobe Illustrator 16.0.0, SVG Export Plug-In . SVG Version: 6.00 Build 0)  -->
<!DOCTYPE svg PUBLIC "-//W3C//DTD SVG 1.1//EN" "http://www.w3.org/Graphics/SVG/1.1/DTD/svg11.dtd">
<svg version="1.1" id="Capa_1" xmlns="http://www.w3.org/2000/svg" xmlns:xlink="http://www.w3.org/1999/xlink" x="0px" y="0px"
	 width="306.257px" height="306.257px" viewBox="0 0 306.257 306.257" style="enable-background:new 0 0 306.257 306.257;"
	 xml:space="preserve">
<g>
	<path d="M19.747,121.968v70.068c0,21.499,17.43,38.924,38.924,38.924h40.703l112.088,73.612
		c11.351,6.271,26.808-5.883,34.372-21.256L47.261,84.75C31.333,89.628,19.747,104.438,19.747,121.968z"/>
	<path d="M250.386,41.816c0-21.5-19.464-51.253-38.924-38.924L108.71,76.499l141.676,141.677V41.816z"/>
	<path d="M55.463,83.202l193.146,193.145l18.88,18.874c3.459,3.469,8.005,5.204,12.547,5.204c4.541,0,9.087-1.735,12.552-5.204
		c6.934-6.929,6.934-18.17,0-25.104l-42.197-42.197L103.037,80.566L38.771,16.314c-3.461-3.469-8.005-5.204-12.549-5.204
		c-4.544,0-9.085,1.735-12.552,5.204c-6.937,6.928-6.937,18.17,0,25.101L55.463,83.202z"/>
</g>
<g>
</g>
<g>
</g>
<g>
</g>
<g>
</g>
<g>
</g>
<g>
</g>
<g>
</g>
<g>
</g>
<g>
</g>
<g>
</g>
<g>
</g>
<g>
</g>
<g>
</g>
<g>
</g>
<g>
</g>
</svg>
